<svg id="svg" version="1.1" xmlns="http://www.w3.org/2000/svg" xmlns:xlink="http://www.w3.org/1999/xlink" width="400" height="225" viewBox="0, 0, 400,225"><g id="svgg"><path id="path0" d="M0.000 43.533 L 0.000 87.066 1.198 86.498 C 6.168 84.143,12.999 79.971,14.221 78.544 C 16.602 75.761,14.837 71.842,8.895 66.718 C 6.463 64.622,6.324 64.172,8.021 63.888 C 8.594 63.792,9.754 63.372,10.599 62.955 L 12.135 62.197 15.967 62.219 C 18.146 62.231,19.850 62.157,19.919 62.046 C 20.057 61.822,17.828 58.366,16.867 57.316 C 16.061 56.434,15.872 56.612,15.792 58.331 C 15.690 60.513,14.692 60.128,12.666 57.124 C 6.761 48.373,5.259 33.018,9.312 22.825 C 11.031 18.503,12.400 17.624,12.807 20.582 C 13.114 22.814,13.576 22.592,15.187 19.439 C 15.878 18.086,16.856 16.510,17.359 15.938 C 17.862 15.365,18.533 14.380,18.849 13.750 C 20.912 9.635,25.094 4.194,28.897 0.677 L 29.629 0.000 14.815 0.000 L 0.000 0.000 0.000 43.533 M32.155 0.321 C 31.948 0.862,32.240 0.907,32.960 0.446 L 33.646 0.007 32.962 0.004 C 32.536 0.001,32.232 0.121,32.155 0.321 M91.776 1.364 C 104.579 10.909,111.072 28.508,107.798 44.792 C 106.069 53.392,101.609 63.560,96.692 70.115 C 94.948 72.438,94.527 72.751,93.152 72.740 C 91.802 72.730,91.811 72.801,93.385 74.608 C 100.274 82.512,103.119 88.686,103.124 95.745 C 103.125 97.692,103.119 97.683,105.574 99.260 C 106.655 99.953,107.206 100.465,107.506 101.053 C 108.184 102.383,108.694 102.136,111.300 99.216 C 115.045 95.021,116.444 102.413,113.543 111.069 C 110.221 120.988,100.969 129.207,100.116 123.000 C 99.841 121.002,99.176 120.987,99.170 122.978 C 99.156 127.291,100.609 128.748,105.073 128.894 C 108.265 128.999,108.559 128.901,108.074 127.899 C 107.644 127.010,107.814 126.581,109.428 124.479 C 112.608 120.338,115.165 117.367,118.885 113.493 C 120.753 111.547,121.279 110.867,121.461 110.160 C 121.586 109.671,121.965 108.427,122.303 107.395 C 123.318 104.293,123.088 104.091,120.867 106.129 C 117.585 109.141,117.270 108.317,119.757 103.226 C 122.833 96.931,126.491 91.845,131.667 86.663 C 137.004 81.319,140.417 78.960,140.417 80.613 C 140.417 81.491,140.807 81.373,143.021 79.825 C 146.567 77.345,146.664 77.292,147.593 77.292 C 148.725 77.292,149.141 77.740,149.306 79.138 C 149.467 80.496,149.498 80.491,151.758 78.775 C 157.709 74.258,166.076 70.831,171.363 70.746 C 174.589 70.694,174.410 72.912,171.000 75.248 C 166.276 78.484,166.442 79.130,171.631 77.698 C 188.887 72.937,204.874 76.864,218.230 89.146 C 221.171 91.850,220.928 93.958,217.708 93.668 C 207.017 92.706,196.826 94.573,188.159 99.080 C 185.163 100.638,184.797 100.683,182.535 99.777 C 181.656 99.425,180.234 99.053,179.375 98.950 C 178.516 98.847,177.117 98.523,176.267 98.231 C 161.497 93.143,147.964 104.117,133.623 132.813 C 129.927 140.209,129.577 140.578,127.083 139.716 C 126.090 139.372,127.825 140.927,135.521 147.277 C 147.288 156.985,147.713 157.279,150.240 157.462 C 153.866 157.724,156.760 153.861,157.029 148.400 C 157.190 145.142,157.622 144.951,159.921 147.125 C 161.273 148.404,161.450 148.308,161.455 146.292 C 161.462 143.339,163.068 142.691,165.581 144.629 C 173.428 150.684,175.779 165.132,170.229 173.199 C 169.096 174.846,169.400 175.130,171.925 174.785 C 185.370 172.944,188.719 157.105,177.286 149.435 C 174.862 147.809,174.700 147.405,176.372 147.154 C 176.821 147.087,177.618 146.762,178.145 146.432 C 179.581 145.531,181.071 145.329,184.167 145.617 C 206.509 147.693,219.823 168.434,210.584 186.771 C 206.183 195.508,196.917 201.791,186.213 203.298 C 182.565 203.811,182.726 204.196,187.083 205.379 C 188.944 205.884,189.360 205.917,194.029 205.927 C 200.165 205.940,200.898 206.383,199.153 209.018 C 195.129 215.093,182.046 220.303,170.833 220.295 C 156.458 220.285,144.972 214.600,138.692 204.388 C 136.654 201.075,137.167 205.890,139.289 209.994 C 141.537 214.341,140.098 215.515,135.281 213.263 C 133.569 212.463,132.993 212.292,132.013 212.292 C 128.487 212.292,122.719 207.323,120.041 201.979 C 117.932 197.771,117.294 193.984,117.708 188.125 C 118.228 180.771,117.930 174.926,116.988 173.982 C 116.562 173.556,116.038 174.222,113.958 177.828 C 99.101 203.593,79.117 216.344,53.646 216.313 C 39.078 216.295,24.386 211.541,13.581 203.349 C 10.254 200.827,10.280 200.842,9.511 201.062 C 7.735 201.572,6.912 201.241,4.970 199.239 C 2.126 196.306,1.887 196.191,1.878 197.751 C 1.876 198.060,1.766 198.553,1.633 198.845 L 1.391 199.376 0.695 198.966 L 0.000 198.556 0.000 211.778 L 0.000 225.000 200.000 225.000 L 400.000 225.000 400.000 112.500 L 400.000 0.000 244.973 -0.000 L 89.947 -0.000 91.776 1.364 M58.229 17.890 C 50.336 20.166,45.807 28.377,47.074 38.117 C 47.636 42.439,47.675 42.483,48.567 39.792 C 49.552 36.822,50.480 35.625,51.799 35.625 C 53.128 35.625,53.424 36.233,54.045 40.246 C 54.824 45.272,56.328 47.902,56.865 45.175 C 57.893 39.950,58.933 39.242,59.887 43.118 C 60.707 46.450,60.881 46.442,61.886 43.021 C 63.068 38.997,63.869 37.708,65.190 37.708 C 66.481 37.708,66.866 38.409,67.385 41.699 C 67.801 44.332,68.625 46.903,69.317 47.725 L 69.872 48.384 70.230 47.941 C 70.428 47.697,70.832 46.864,71.128 46.089 C 76.786 31.281,69.212 14.723,58.229 17.890 M36.325 93.734 C 34.952 94.571,35.202 94.778,38.229 95.310 C 40.676 95.740,41.333 96.027,42.218 97.052 L 42.874 97.812 43.821 97.352 C 45.644 96.467,45.500 95.713,43.392 95.100 C 42.736 94.909,41.822 94.560,41.360 94.324 C 39.413 93.328,37.380 93.090,36.325 93.734 M0.000 99.583 L 0.000 104.127 2.213 101.959 C 4.648 99.574,4.992 99.429,5.922 100.401 C 6.591 101.099,6.881 101.060,7.861 100.141 C 10.097 98.042,8.099 95.527,4.008 95.291 C 3.121 95.240,1.857 95.163,1.198 95.119 L 0.000 95.040 0.000 99.583 M36.667 101.020 C 34.857 101.696,32.590 102.811,32.399 103.120 C 32.135 103.547,32.976 103.314,34.956 102.411 C 36.069 101.903,37.334 101.424,37.768 101.345 C 38.201 101.266,38.764 101.028,39.018 100.816 L 39.479 100.431 38.854 100.434 C 38.510 100.435,37.526 100.699,36.667 101.020 M71.146 102.480 C 68.627 102.747,68.579 102.789,69.574 103.868 L 70.420 104.785 70.366 107.445 L 70.313 110.104 71.009 111.108 C 72.260 112.909,72.544 112.735,72.901 109.948 C 73.468 105.527,75.616 104.533,77.292 107.917 C 78.293 109.937,78.777 110.045,79.500 108.411 C 80.849 105.360,80.845 103.500,79.489 102.831 C 78.583 102.384,73.910 102.188,71.146 102.480 M36.780 109.853 C 35.487 111.827,36.014 113.295,37.656 112.294 C 38.459 111.804,38.437 111.975,37.888 110.539 C 37.394 109.249,37.239 109.153,36.780 109.853 M13.149 110.521 C 12.817 111.275,12.730 112.996,13.020 113.084 C 13.296 113.167,13.576 111.772,13.492 110.729 L 13.425 109.896 13.149 110.521 M80.778 111.583 C 79.712 112.649,86.791 114.440,90.833 114.127 L 91.771 114.054 90.625 113.700 C 89.995 113.505,88.402 113.240,87.086 113.111 C 85.032 112.910,84.499 112.776,83.323 112.168 C 82.050 111.509,81.076 111.285,80.778 111.583 M52.188 116.510 C 38.525 130.599,33.477 149.869,39.761 163.951 C 45.334 176.440,57.950 182.223,68.140 176.960 C 75.357 173.233,82.815 165.878,89.024 156.366 C 89.618 155.456,90.356 154.528,90.664 154.304 L 91.225 153.896 92.374 154.478 C 93.737 155.167,94.366 154.947,94.936 153.581 C 95.411 152.444,95.209 152.172,91.771 149.319 C 84.707 143.457,83.040 140.658,82.188 133.229 C 81.511 127.332,80.916 126.275,76.072 122.366 C 73.263 120.099,72.933 120.193,72.753 123.311 C 72.616 125.668,73.034 126.117,75.449 126.203 C 78.360 126.308,78.958 126.637,78.958 128.133 C 78.958 133.816,61.657 142.813,57.665 139.207 C 56.892 138.508,56.702 138.437,55.597 138.429 C 53.549 138.416,53.539 138.052,55.525 135.938 C 57.276 134.075,57.268 134.105,56.245 132.967 C 54.948 131.526,54.827 131.458,53.527 131.458 C 51.555 131.458,51.496 131.042,53.154 128.841 C 55.972 125.102,56.835 119.524,55.189 115.683 C 54.613 114.341,54.174 114.462,52.188 116.510 M68.576 115.221 C 68.615 115.482,68.771 115.738,68.924 115.788 C 69.113 115.850,69.179 115.727,69.132 115.404 C 69.094 115.143,68.937 114.887,68.785 114.837 C 68.596 114.775,68.529 114.898,68.576 115.221 " stroke="none" fill="#340404" fill-rule="evenodd"></path><path id="path1" d="M32.976 2.869 C 27.637 8.416,24.579 13.389,22.204 20.391 C 20.668 24.917,19.997 25.104,19.153 21.239 C 18.429 17.922,17.647 17.955,16.128 21.365 C 10.994 32.895,12.523 48.560,19.733 58.287 C 21.733 60.984,22.075 60.501,21.928 55.192 C 21.795 50.424,21.948 49.156,23.148 45.050 C 24.886 39.106,25.579 38.752,27.383 42.883 C 30.316 49.600,34.379 54.536,40.080 58.310 C 44.360 61.143,44.462 61.089,44.257 56.109 C 44.092 52.100,44.338 48.870,45.136 44.583 C 45.689 41.614,45.695 40.921,45.208 36.706 C 43.942 25.777,51.935 15.808,61.979 15.785 C 76.921 15.751,83.883 32.780,75.724 49.405 C 74.406 52.089,74.378 52.309,75.183 53.553 C 77.081 56.486,92.092 70.833,93.262 70.833 C 95.521 70.833,102.121 58.827,104.899 49.664 C 110.690 30.557,104.388 12.118,88.156 0.677 L 87.195 0.000 65.765 0.000 L 44.335 0.000 43.678 0.458 C 43.317 0.710,42.242 1.553,41.289 2.332 C 38.576 4.551,37.775 4.492,37.980 2.088 C 38.043 1.341,38.159 0.565,38.236 0.365 C 38.362 0.041,38.231 0.000,37.054 0.004 L 35.729 0.008 32.976 2.869 M50.844 38.888 C 48.712 41.599,47.122 52.851,48.024 58.854 C 48.642 62.971,48.964 63.572,51.629 65.578 C 55.728 68.663,59.869 73.756,58.991 74.634 C 58.728 74.897,58.167 74.520,55.704 72.429 C 53.299 70.388,50.103 68.375,42.485 64.105 C 36.324 60.652,30.556 55.892,28.149 52.272 C 26.666 50.043,26.016 49.989,25.627 52.060 C 25.072 55.016,25.503 58.838,26.769 62.202 C 27.711 64.706,27.276 65.052,23.899 64.490 C 20.742 63.964,13.732 63.791,13.367 64.230 C 12.942 64.743,13.245 65.298,14.467 66.240 C 17.268 68.401,20.561 72.489,21.251 74.660 C 22.257 77.828,20.743 79.220,9.776 85.212 C 5.651 87.466,2.638 89.216,0.679 90.496 C 0.021 90.925,0.003 90.978,0.001 92.420 L 0.000 93.902 0.885 93.731 C 2.169 93.483,6.036 93.505,7.746 93.770 C 14.538 94.824,17.068 98.899,16.026 107.105 C 15.391 112.105,15.441 112.130,19.700 108.931 C 25.129 104.854,29.749 102.101,34.844 99.905 C 39.842 97.752,39.967 97.457,36.225 96.661 C 35.150 96.433,34.061 96.199,33.805 96.141 C 32.438 95.831,32.550 94.527,34.051 93.272 C 39.339 88.852,50.609 85.150,56.150 86.012 C 58.565 86.388,58.252 86.695,54.322 87.806 C 51.020 88.739,48.132 89.789,46.146 90.778 C 42.890 92.400,43.104 93.003,47.310 94.065 C 52.071 95.269,52.285 95.717,49.167 97.943 C 45.417 100.619,42.396 103.777,40.723 106.767 C 39.391 109.150,39.861 109.757,42.423 108.965 C 45.474 108.023,50.160 108.030,53.269 108.982 C 62.644 111.852,64.995 120.960,58.636 129.770 C 57.544 131.283,58.019 131.573,61.253 131.363 C 65.058 131.117,65.134 132.145,61.598 135.990 C 60.101 137.618,60.045 137.730,60.525 138.128 C 62.109 139.443,71.127 135.304,75.039 131.467 C 77.522 129.030,77.521 128.112,75.032 127.886 C 71.416 127.558,70.437 125.699,71.354 120.904 C 71.933 117.878,71.760 117.518,69.923 117.929 C 66.726 118.644,65.752 115.773,67.448 110.625 C 69.319 104.941,69.322 104.950,64.961 104.178 C 58.027 102.952,64.675 100.761,75.313 100.767 C 85.949 100.773,88.185 102.193,85.940 107.515 C 84.905 109.968,84.832 110.402,85.377 110.843 C 85.885 111.255,85.959 111.267,90.785 111.765 C 98.375 112.547,101.402 115.035,101.819 120.833 C 101.995 123.289,102.358 123.598,103.877 122.584 C 106.606 120.763,109.727 116.376,111.481 111.895 C 113.414 106.956,114.088 100.625,112.681 100.625 C 112.579 100.625,111.779 101.289,110.903 102.102 C 107.839 104.943,106.899 105.025,105.686 102.556 C 105.006 101.173,104.692 100.791,103.438 99.829 C 101.559 98.387,101.532 98.324,101.399 95.000 C 101.021 85.611,97.562 80.524,80.432 64.160 C 70.909 55.064,67.750 50.545,66.033 43.569 C 65.396 40.983,65.195 40.609,64.630 40.964 C 63.619 41.600,62.829 45.543,62.820 50.000 C 62.809 55.264,63.061 55.759,68.125 60.418 C 77.744 69.268,82.403 74.107,84.185 77.095 C 85.831 79.855,85.267 79.806,82.246 76.925 C 80.954 75.692,76.943 71.912,73.333 68.525 C 56.721 52.938,54.178 49.610,52.517 41.294 C 51.904 38.223,51.652 37.861,50.844 38.888 M166.957 73.510 C 163.384 74.754,160.891 76.355,154.190 81.709 C 148.074 86.595,146.520 87.437,145.255 86.551 C 144.568 86.070,144.652 84.898,145.521 82.798 C 147.109 78.961,146.057 79.314,139.931 84.671 C 133.706 90.115,128.409 97.321,125.335 104.525 C 123.592 108.611,124.170 108.871,127.669 105.575 C 136.455 97.300,150.478 90.086,160.374 88.752 C 163.903 88.276,163.607 88.792,159.479 90.310 C 143.793 96.077,129.710 106.706,117.446 122.033 C 113.228 127.304,113.128 127.685,115.629 128.960 C 117.562 129.947,118.892 130.917,124.596 135.506 C 128.984 139.035,128.643 139.130,131.342 133.610 C 140.389 115.107,150.589 101.977,159.063 97.929 C 166.122 94.556,176.269 94.684,183.130 98.232 C 184.502 98.941,184.931 98.862,187.934 97.337 C 195.302 93.598,205.283 91.427,213.750 91.722 C 218.667 91.893,218.776 91.518,214.742 88.304 C 201.750 77.954,187.806 74.874,173.542 79.204 C 167.102 81.158,166.976 81.175,166.000 80.198 C 164.747 78.946,165.414 77.525,168.445 74.994 C 171.055 72.814,170.512 72.273,166.957 73.510 M80.000 86.488 C 83.699 88.587,87.716 94.532,85.901 95.222 C 83.870 95.994,80.239 93.215,78.435 89.507 C 76.763 86.070,77.331 84.973,80.000 86.488 M8.150 102.330 C 6.790 103.741,4.849 105.880,3.836 107.083 C 2.823 108.286,1.546 109.782,0.997 110.406 L -0.000 111.542 0.000 150.826 L 0.000 190.110 0.769 191.253 C 3.166 194.815,6.592 198.750,7.296 198.750 C 7.920 198.750,8.001 198.380,7.943 195.774 C 7.859 191.924,8.376 191.734,10.757 194.740 C 22.136 209.110,42.238 216.850,61.563 214.301 C 84.408 211.289,100.896 198.565,114.554 173.406 C 116.824 169.225,117.324 170.109,108.468 162.647 C 96.323 152.413,97.513 152.973,95.204 156.405 C 79.203 180.196,58.726 187.350,44.778 174.024 C 30.255 160.149,32.777 135.364,50.717 115.641 C 53.312 112.788,52.805 112.053,48.229 112.039 C 43.869 112.025,40.808 113.126,36.458 116.270 C 33.864 118.146,33.339 117.699,33.851 114.053 C 34.192 111.623,34.783 109.696,36.049 106.883 C 37.652 103.323,37.123 103.204,31.743 105.919 C 25.888 108.874,20.168 112.746,15.012 117.245 C 11.428 120.372,11.070 120.574,10.552 119.753 C 10.246 119.266,10.693 113.647,11.337 109.896 C 12.465 103.320,12.618 101.631,12.171 100.715 C 11.432 99.202,10.995 99.378,8.150 102.330 M74.792 109.478 C 73.539 112.773,75.562 117.049,80.096 120.687 C 87.190 126.382,87.571 126.949,88.234 132.813 C 89.289 142.152,89.423 142.324,107.034 156.933 C 119.219 167.040,120.721 168.448,122.047 170.996 C 123.911 174.579,124.318 177.631,123.948 185.251 C 123.299 198.624,125.727 205.066,133.333 210.147 C 137.589 212.989,138.633 212.846,137.216 209.617 C 134.985 204.533,134.974 199.540,137.184 194.688 C 138.892 190.934,140.063 190.902,140.939 194.583 C 144.063 207.713,153.619 216.818,165.972 218.438 C 176.461 219.813,189.066 216.266,195.875 210.024 C 198.110 207.975,197.854 207.639,194.100 207.689 C 187.425 207.778,178.750 205.018,178.750 202.806 C 178.750 202.174,178.777 202.169,183.125 201.890 C 207.060 200.354,219.906 176.912,206.558 159.127 C 201.715 152.675,192.602 147.795,184.572 147.354 C 180.932 147.154,180.697 147.599,183.451 149.470 C 197.427 158.964,189.191 176.394,170.660 176.539 C 166.423 176.572,166.076 176.125,168.154 173.304 C 173.256 166.376,172.741 155.620,166.961 148.365 C 164.412 145.166,163.508 145.118,163.307 148.173 C 162.643 158.218,152.530 162.726,144.375 156.612 C 142.758 155.400,124.825 140.627,122.813 138.849 C 114.917 131.874,113.366 131.127,105.735 130.620 C 99.319 130.194,98.648 129.602,97.387 123.252 C 96.245 117.500,94.946 116.519,87.292 115.628 C 80.898 114.884,79.048 113.993,76.692 110.521 C 75.591 108.900,75.112 108.636,74.792 109.478 " stroke="none" fill="#eb0404" fill-rule="evenodd"></path><path id="path2" d="M28.897 0.677 C 25.094 4.194,20.912 9.635,18.849 13.750 C 18.533 14.380,17.862 15.365,17.359 15.938 C 16.856 16.510,15.878 18.086,15.187 19.439 C 13.576 22.592,13.114 22.814,12.807 20.582 C 12.400 17.624,11.031 18.503,9.312 22.825 C 5.259 33.018,6.761 48.373,12.666 57.124 C 14.692 60.128,15.690 60.513,15.792 58.331 C 15.872 56.612,16.061 56.434,16.867 57.316 C 17.828 58.366,20.057 61.822,19.919 62.046 C 19.850 62.157,18.146 62.231,15.967 62.219 L 12.135 62.197 10.599 62.955 C 9.754 63.372,8.594 63.792,8.021 63.888 C 6.324 64.172,6.463 64.622,8.895 66.718 C 16.051 72.889,17.077 76.958,12.295 80.206 C 10.232 81.607,4.940 84.626,1.823 86.181 L 0.000 87.090 0.000 88.962 C 0.000 91.022,-0.012 90.999,0.790 90.440 C 2.111 89.520,5.477 87.561,9.776 85.212 C 20.743 79.220,22.257 77.828,21.251 74.660 C 20.561 72.489,17.268 68.401,14.467 66.240 C 13.245 65.298,12.942 64.743,13.367 64.230 C 13.732 63.791,20.742 63.964,23.899 64.490 C 27.276 65.052,27.711 64.706,26.769 62.202 C 25.503 58.838,25.072 55.016,25.627 52.060 C 26.016 49.989,26.666 50.043,28.149 52.272 C 30.556 55.892,36.324 60.652,42.485 64.105 C 50.103 68.375,53.299 70.388,55.704 72.429 C 58.167 74.520,58.728 74.897,58.991 74.634 C 59.869 73.756,55.728 68.663,51.629 65.578 C 48.964 63.572,48.642 62.971,48.024 58.854 C 47.354 54.392,47.669 49.541,48.958 44.479 C 50.584 38.093,51.635 36.736,52.286 40.184 C 54.043 49.493,56.325 52.566,73.333 68.525 C 76.943 71.912,80.954 75.692,82.246 76.925 C 85.267 79.806,85.831 79.855,84.185 77.095 C 82.403 74.107,77.744 69.268,68.125 60.418 C 63.061 55.759,62.809 55.264,62.820 50.000 C 62.829 45.543,63.619 41.600,64.630 40.964 C 65.195 40.609,65.396 40.983,66.033 43.569 C 67.750 50.545,70.909 55.064,80.432 64.160 C 97.562 80.524,101.021 85.611,101.399 95.000 C 101.532 98.324,101.559 98.387,103.438 99.829 C 104.692 100.791,105.006 101.173,105.686 102.556 C 106.899 105.025,107.839 104.943,110.903 102.102 C 111.779 101.289,112.579 100.625,112.681 100.625 C 114.088 100.625,113.414 106.956,111.481 111.895 C 109.727 116.376,106.606 120.763,103.877 122.584 C 102.358 123.598,101.995 123.289,101.819 120.833 C 101.402 115.035,98.375 112.547,90.785 111.765 C 85.959 111.267,85.885 111.255,85.377 110.843 C 84.832 110.402,84.905 109.968,85.940 107.515 C 88.185 102.193,85.949 100.773,75.313 100.767 C 64.675 100.761,58.027 102.952,64.961 104.178 C 69.322 104.950,69.319 104.941,67.448 110.625 C 65.752 115.773,66.726 118.644,69.923 117.929 C 71.760 117.518,71.933 117.878,71.354 120.904 C 70.437 125.699,71.416 127.558,75.032 127.886 C 77.521 128.112,77.522 129.030,75.039 131.467 C 71.127 135.304,62.109 139.443,60.525 138.128 C 60.045 137.730,60.101 137.618,61.598 135.990 C 65.134 132.145,65.058 131.117,61.253 131.363 C 58.019 131.573,57.544 131.283,58.636 129.770 C 64.995 120.960,62.644 111.852,53.269 108.982 C 50.160 108.030,45.474 108.023,42.423 108.965 C 39.861 109.757,39.391 109.150,40.723 106.767 C 42.396 103.777,45.417 100.619,49.167 97.943 C 52.285 95.717,52.071 95.269,47.310 94.065 C 43.104 93.003,42.890 92.400,46.146 90.778 C 48.132 89.789,51.020 88.739,54.322 87.806 C 58.252 86.695,58.565 86.388,56.150 86.012 C 50.609 85.150,39.339 88.852,34.051 93.272 C 32.550 94.527,32.438 95.831,33.805 96.141 C 34.061 96.199,35.150 96.433,36.225 96.661 C 39.967 97.457,39.842 97.752,34.844 99.905 C 29.749 102.101,25.129 104.854,19.700 108.931 C 15.441 112.130,15.391 112.105,16.026 107.105 C 17.234 97.592,13.612 93.503,4.023 93.554 C 0.805 93.571,0.120 93.719,0.039 94.418 C -0.038 95.084,0.216 95.148,3.449 95.270 C 8.032 95.444,10.252 97.896,7.861 100.141 C 6.881 101.060,6.591 101.099,5.922 100.401 C 4.992 99.429,4.648 99.574,2.213 101.959 L 0.000 104.127 0.000 107.841 L 0.000 111.555 0.906 110.517 C 1.405 109.946,2.680 108.449,3.741 107.189 C 7.344 102.911,10.542 99.754,11.197 99.830 C 12.735 100.007,12.758 101.610,11.337 109.896 C 10.693 113.647,10.246 119.266,10.552 119.753 C 11.070 120.574,11.428 120.372,15.012 117.245 C 20.168 112.746,25.888 108.874,31.743 105.919 C 37.123 103.204,37.652 103.323,36.049 106.883 C 34.783 109.696,34.192 111.623,33.851 114.053 C 33.339 117.699,33.864 118.146,36.458 116.270 C 40.808 113.126,43.869 112.025,48.229 112.039 C 52.805 112.053,53.312 112.788,50.717 115.641 C 32.777 135.364,30.255 160.149,44.778 174.024 C 58.726 187.350,79.203 180.196,95.204 156.405 C 97.513 152.973,96.323 152.413,108.468 162.647 C 117.324 170.109,116.824 169.225,114.554 173.406 C 100.896 198.565,84.408 211.289,61.563 214.301 C 42.238 216.850,22.136 209.110,10.757 194.740 C 8.376 191.734,7.859 191.924,7.943 195.774 C 8.001 198.380,7.920 198.750,7.296 198.750 C 6.592 198.750,3.166 194.815,0.769 191.253 L -0.000 190.110 -0.000 194.329 L -0.000 198.548 0.672 198.957 L 1.345 199.365 1.602 198.901 C 1.744 198.646,1.865 198.156,1.871 197.813 C 1.898 196.189,2.103 196.283,4.970 199.239 C 6.912 201.241,7.735 201.572,9.511 201.062 C 10.280 200.842,10.254 200.827,13.581 203.349 C 24.386 211.541,39.078 216.295,53.646 216.313 C 79.117 216.344,99.101 203.593,113.958 177.828 C 116.038 174.222,116.562 173.556,116.988 173.982 C 117.930 174.926,118.228 180.771,117.708 188.125 C 117.294 193.984,117.932 197.771,120.041 201.979 C 122.719 207.323,128.487 212.292,132.013 212.292 C 132.993 212.292,133.569 212.463,135.281 213.263 C 140.098 215.515,141.537 214.341,139.289 209.994 C 137.167 205.890,136.654 201.075,138.692 204.388 C 146.690 217.394,164.473 223.382,181.875 218.929 C 191.568 216.449,201.670 209.240,199.393 206.429 C 198.995 205.938,198.990 205.937,194.029 205.927 C 189.360 205.917,188.944 205.884,187.083 205.379 C 182.726 204.196,182.565 203.811,186.213 203.298 C 211.822 199.693,222.500 171.715,204.764 154.691 C 197.506 147.726,183.173 143.278,178.145 146.432 C 177.618 146.762,176.821 147.087,176.372 147.154 C 174.700 147.405,174.862 147.809,177.286 149.435 C 188.719 157.105,185.370 172.944,171.925 174.785 C 169.400 175.130,169.096 174.846,170.229 173.199 C 175.779 165.132,173.428 150.684,165.581 144.629 C 163.068 142.691,161.462 143.339,161.455 146.292 C 161.450 148.308,161.273 148.404,159.921 147.125 C 157.622 144.951,157.190 145.142,157.029 148.400 C 156.760 153.861,153.866 157.724,150.240 157.462 C 147.713 157.279,147.288 156.985,135.521 147.277 C 127.825 140.927,126.090 139.372,127.083 139.716 C 129.577 140.578,129.927 140.209,133.623 132.813 C 147.964 104.117,161.497 93.143,176.267 98.231 C 177.117 98.523,178.516 98.847,179.375 98.950 C 180.234 99.053,181.656 99.425,182.535 99.777 C 184.797 100.683,185.163 100.638,188.159 99.080 C 196.826 94.573,207.017 92.706,217.708 93.668 C 220.928 93.958,221.171 91.850,218.230 89.146 C 204.874 76.864,188.887 72.937,171.631 77.698 C 166.442 79.130,166.276 78.484,171.000 75.248 C 174.410 72.912,174.589 70.694,171.363 70.746 C 166.076 70.831,157.709 74.258,151.758 78.775 C 149.498 80.491,149.467 80.496,149.306 79.138 C 149.141 77.740,148.725 77.292,147.593 77.292 C 146.664 77.292,146.567 77.345,143.021 79.825 C 140.807 81.373,140.417 81.491,140.417 80.613 C 140.417 78.960,137.004 81.319,131.667 86.663 C 126.491 91.845,122.833 96.931,119.757 103.226 C 117.270 108.317,117.585 109.141,120.867 106.129 C 123.088 104.091,123.318 104.293,122.303 107.395 C 121.965 108.427,121.586 109.671,121.461 110.160 C 121.279 110.867,120.753 111.547,118.885 113.493 C 115.165 117.367,112.608 120.338,109.428 124.479 C 107.814 126.581,107.644 127.010,108.074 127.899 C 108.559 128.901,108.265 128.999,105.073 128.894 C 100.609 128.748,99.156 127.291,99.170 122.978 C 99.176 120.987,99.841 121.002,100.116 123.000 C 100.969 129.207,110.221 120.988,113.543 111.069 C 116.444 102.413,115.045 95.021,111.300 99.216 C 108.694 102.136,108.184 102.383,107.506 101.053 C 107.206 100.465,106.655 99.953,105.574 99.260 C 103.119 97.683,103.125 97.692,103.124 95.745 C 103.119 88.686,100.274 82.512,93.385 74.608 C 91.811 72.801,91.802 72.730,93.152 72.740 C 94.837 72.754,96.351 71.128,99.467 65.961 C 109.963 48.554,111.386 31.448,103.648 15.729 C 99.762 7.837,92.251 0.000,88.571 0.000 L 87.195 0.000 88.156 0.677 C 98.358 7.868,103.640 15.943,106.245 28.333 C 108.669 39.865,105.030 54.651,96.662 67.268 C 93.722 71.701,93.716 71.703,90.488 68.806 C 83.323 62.375,76.477 55.552,75.183 53.553 C 74.378 52.309,74.406 52.089,75.724 49.405 C 83.883 32.780,76.921 15.751,61.979 15.785 C 51.935 15.808,43.942 25.777,45.208 36.706 C 45.695 40.921,45.689 41.614,45.136 44.583 C 44.338 48.870,44.092 52.100,44.257 56.109 C 44.462 61.089,44.360 61.143,40.080 58.310 C 34.379 54.536,30.316 49.600,27.383 42.883 C 25.579 38.752,24.886 39.106,23.148 45.050 C 21.948 49.156,21.795 50.424,21.928 55.192 C 22.075 60.501,21.733 60.984,19.733 58.287 C 12.523 48.560,10.994 32.895,16.128 21.365 C 17.647 17.955,18.429 17.922,19.153 21.239 C 19.997 25.104,20.668 24.917,22.204 20.391 C 24.633 13.230,27.941 7.935,33.481 2.339 L 35.694 0.104 34.713 0.040 C 34.004 -0.006,33.541 0.095,33.040 0.405 C 32.174 0.940,32.006 0.943,32.144 0.417 C 32.353 -0.382,29.823 -0.179,28.897 0.677 M38.236 0.365 C 38.159 0.565,38.043 1.341,37.980 2.088 C 37.773 4.520,38.557 4.555,41.395 2.241 C 42.414 1.409,43.478 0.570,43.759 0.376 C 44.251 0.035,44.159 0.021,41.324 0.011 C 38.705 0.001,38.362 0.040,38.236 0.365 M63.722 17.892 C 69.604 19.723,73.773 28.736,72.951 37.847 C 72.603 41.708,71.268 46.659,70.230 47.941 L 69.872 48.384 69.317 47.725 C 68.625 46.903,67.801 44.332,67.385 41.699 C 66.866 38.409,66.481 37.708,65.190 37.708 C 63.869 37.708,63.068 38.997,61.886 43.021 C 60.881 46.442,60.707 46.450,59.887 43.118 C 58.933 39.242,57.893 39.950,56.865 45.175 C 56.328 47.902,54.824 45.272,54.045 40.246 C 53.424 36.233,53.128 35.625,51.799 35.625 C 50.480 35.625,49.552 36.822,48.567 39.792 C 47.675 42.483,47.636 42.439,47.074 38.117 C 46.584 34.354,46.623 32.945,47.297 30.061 C 49.217 21.840,57.261 15.881,63.722 17.892 M170.208 73.219 C 170.208 73.385,169.415 74.184,168.445 74.994 C 165.414 77.525,164.747 78.946,166.000 80.198 C 166.976 81.175,167.102 81.158,173.542 79.204 C 185.024 75.718,196.117 76.995,206.963 83.051 C 212.104 85.920,217.500 90.134,217.500 91.279 C 217.500 91.812,217.240 91.843,213.750 91.722 C 205.283 91.427,195.302 93.598,187.934 97.337 C 184.931 98.862,184.502 98.941,183.130 98.232 C 176.269 94.684,166.122 94.556,159.063 97.929 C 150.589 101.977,140.389 115.107,131.342 133.610 C 128.643 139.130,128.984 139.035,124.596 135.506 C 118.892 130.917,117.562 129.947,115.629 128.960 C 113.128 127.685,113.228 127.304,117.446 122.033 C 129.710 106.706,143.793 96.077,159.479 90.310 C 163.607 88.792,163.903 88.276,160.374 88.752 C 150.478 90.086,136.455 97.300,127.669 105.575 C 124.170 108.871,123.592 108.611,125.335 104.525 C 128.409 97.321,133.706 90.115,139.931 84.671 C 146.057 79.314,147.109 78.961,145.521 82.798 C 144.652 84.898,144.568 86.070,145.255 86.551 C 146.520 87.437,148.074 86.595,154.190 81.709 C 159.438 77.516,161.018 76.390,163.624 74.985 C 166.658 73.349,170.208 72.397,170.208 73.219 M77.639 85.972 C 76.945 86.667,78.659 90.662,80.510 92.660 C 82.923 95.266,86.458 96.255,86.458 94.323 C 86.458 91.606,79.034 84.577,77.639 85.972 M39.479 93.617 C 40.052 93.770,40.899 94.088,41.360 94.324 C 41.822 94.560,42.736 94.909,43.392 95.100 C 45.500 95.713,45.644 96.467,43.821 97.352 L 42.874 97.812 42.218 97.052 C 41.333 96.027,40.676 95.740,38.229 95.310 C 35.202 94.778,34.952 94.571,36.325 93.734 C 37.092 93.266,38.035 93.231,39.479 93.617 M39.018 100.816 C 38.764 101.028,38.201 101.266,37.768 101.345 C 37.334 101.424,36.069 101.903,34.956 102.411 C 32.976 103.314,32.135 103.547,32.399 103.120 C 32.771 102.518,37.766 100.439,38.854 100.434 L 39.479 100.431 39.018 100.816 M79.489 102.831 C 80.845 103.500,80.849 105.360,79.500 108.411 C 78.777 110.045,78.293 109.937,77.292 107.917 C 75.616 104.533,73.468 105.527,72.901 109.948 C 72.544 112.735,72.260 112.909,71.009 111.108 L 70.313 110.104 70.366 107.445 L 70.420 104.785 69.574 103.868 C 68.742 102.966,68.737 102.949,69.208 102.793 C 71.050 102.185,78.232 102.211,79.489 102.831 M76.692 110.521 C 79.048 113.993,80.898 114.884,87.292 115.628 C 94.946 116.519,96.245 117.500,97.387 123.252 C 98.648 129.602,99.319 130.194,105.735 130.620 C 113.366 131.127,114.917 131.874,122.813 138.849 C 124.825 140.627,142.758 155.400,144.375 156.612 C 152.530 162.726,162.643 158.218,163.307 148.173 C 163.508 145.118,164.412 145.166,166.961 148.365 C 172.741 155.620,173.256 166.376,168.154 173.304 C 166.076 176.125,166.423 176.572,170.660 176.539 C 189.191 176.394,197.427 158.964,183.451 149.470 C 180.697 147.599,180.932 147.154,184.572 147.354 C 192.602 147.795,201.715 152.675,206.558 159.127 C 219.906 176.912,207.060 200.354,183.125 201.890 C 178.777 202.169,178.750 202.174,178.750 202.806 C 178.750 205.018,187.425 207.778,194.100 207.689 C 197.854 207.639,198.110 207.975,195.875 210.024 C 189.066 216.266,176.461 219.813,165.972 218.438 C 153.619 216.818,144.063 207.713,140.939 194.583 C 140.063 190.902,138.892 190.934,137.184 194.688 C 134.974 199.540,134.985 204.533,137.216 209.617 C 138.633 212.846,137.589 212.989,133.333 210.147 C 125.727 205.066,123.299 198.624,123.948 185.251 C 124.318 177.631,123.911 174.579,122.047 170.996 C 120.721 168.448,119.219 167.040,107.034 156.933 C 89.423 142.324,89.289 142.152,88.234 132.813 C 87.571 126.949,87.190 126.382,80.096 120.687 C 76.071 117.457,74.583 114.964,74.583 111.450 C 74.583 108.550,75.177 108.289,76.692 110.521 M37.888 110.539 C 38.437 111.975,38.459 111.804,37.656 112.294 C 36.014 113.295,35.487 111.827,36.780 109.853 C 37.239 109.153,37.394 109.249,37.888 110.539 M13.393 112.354 C 13.302 112.790,13.134 113.118,13.020 113.084 C 12.730 112.996,12.817 111.275,13.149 110.521 L 13.425 109.896 13.492 110.729 C 13.529 111.188,13.484 111.919,13.393 112.354 M83.323 112.168 C 84.499 112.776,85.032 112.910,87.086 113.111 C 88.402 113.240,89.995 113.505,90.625 113.700 L 91.771 114.054 90.833 114.127 C 87.472 114.387,81.173 113.062,80.769 112.008 C 80.462 111.208,81.607 111.280,83.323 112.168 M55.189 115.683 C 56.835 119.524,55.972 125.102,53.154 128.841 C 51.496 131.042,51.555 131.458,53.527 131.458 C 54.827 131.458,54.948 131.526,56.245 132.967 C 57.268 134.105,57.276 134.075,55.525 135.938 C 53.539 138.052,53.549 138.416,55.597 138.429 C 56.702 138.437,56.892 138.508,57.665 139.207 C 61.657 142.813,78.958 133.816,78.958 128.133 C 78.958 126.637,78.360 126.308,75.449 126.203 C 73.034 126.117,72.616 125.668,72.753 123.311 C 72.933 120.193,73.263 120.099,76.072 122.366 C 80.916 126.275,81.511 127.332,82.188 133.229 C 83.040 140.658,84.707 143.457,91.771 149.319 C 95.209 152.172,95.411 152.444,94.936 153.581 C 94.366 154.947,93.737 155.167,92.374 154.478 L 91.225 153.896 90.664 154.304 C 90.356 154.528,89.618 155.456,89.024 156.366 C 82.815 165.878,75.357 173.233,68.140 176.960 C 57.950 182.223,45.334 176.440,39.761 163.951 C 33.477 149.869,38.525 130.599,52.188 116.510 C 54.174 114.462,54.613 114.341,55.189 115.683 M69.132 115.404 C 69.179 115.727,69.113 115.850,68.924 115.788 C 68.771 115.738,68.615 115.482,68.576 115.221 C 68.529 114.898,68.596 114.775,68.785 114.837 C 68.937 114.887,69.094 115.143,69.132 115.404 " stroke="none" fill="#490404" fill-rule="evenodd"></path></g></svg>